<?xml version="1.0" standalone="no"?>
<!DOCTYPE svg PUBLIC "-//W3C//DTD SVG 20010904//EN"
 "http://www.w3.org/TR/2001/REC-SVG-20010904/DTD/svg10.dtd">
<svg version="1.0" xmlns="http://www.w3.org/2000/svg"
 width="279.000000pt" height="131.000000pt" viewBox="0 0 279.000000 131.000000"
 preserveAspectRatio="xMidYMid meet">

<g transform="translate(0.000000,131.000000) scale(0.100000,-0.100000)"
fill="#000000" stroke="none">
<path d="M202 1068 c-9 -9 -12 -115 -12 -414 0 -221 3 -409 6 -418 8 -20 108
-23 121 -3 4 6 10 86 13 177 l5 165 149 3 c101 2 153 -1 162 -9 11 -9 14 -47
14 -168 0 -86 4 -162 9 -169 5 -9 25 -12 62 -10 l54 3 0 425 0 425 -54 3 c-37
2 -57 -1 -62 -10 -5 -7 -9 -83 -9 -168 0 -85 -4 -161 -8 -168 -7 -9 -46 -12
-163 -10 l-154 3 -5 165 c-3 91 -9 171 -13 178 -10 16 -99 16 -115 0z"/>
<path d="M1017 1073 c-4 -3 -7 -28 -7 -54 0 -38 4 -51 19 -59 12 -6 121 -10
285 -10 294 0 296 0 296 65 0 69 18 65 -299 65 -158 0 -291 -3 -294 -7z"/>
<path d="M1806 1064 c-9 -24 -7 -817 3 -832 5 -9 25 -12 62 -10 l54 3 5 350
c3 193 9 356 13 363 11 16 129 16 145 0 9 -9 12 -99 12 -346 0 -211 4 -340 10
-353 8 -15 21 -19 60 -19 28 0 52 5 57 13 4 6 10 170 13 362 l5 350 75 0 75 0
5 -350 c3 -192 9 -356 13 -362 10 -17 99 -17 115 -1 17 17 17 819 0 836 -9 9
-104 12 -364 12 -312 0 -353 -2 -358 -16z"/>
<path d="M1028 709 c-27 -15 -25 -104 1 -119 12 -6 119 -10 278 -10 296 0 303
2 303 70 0 70 1 70 -298 70 -163 0 -274 -5 -284 -11z"/>
<path d="M1026 337 c-13 -10 -17 -24 -14 -62 l3 -50 289 -3 c225 -2 291 1 298
10 13 22 9 86 -8 102 -13 14 -53 16 -283 16 -202 0 -271 -3 -285 -13z"/>
</g>
</svg>
